<?xml version="1.0" encoding="iso-8859-1"?>
<!-- Generator: Adobe Illustrator 19.1.0, SVG Export Plug-In . SVG Version: 6.00 Build 0)  -->
<svg xmlns="http://www.w3.org/2000/svg" xmlns:xlink="http://www.w3.org/1999/xlink" version="1.1" id="Capa_1" x="0px" y="0px" viewBox="0 0 518.373 518.373" style="enable-background:new 0 0 518.373 518.373;" xml:space="preserve" width="512px" height="512px">
<g>
	<path d="M518.348,174.209c0-23.018-8.954-44.638-25.23-60.907L405.053,25.23C388.784,8.961,367.157,0,344.153,0   s-44.638,8.961-60.907,25.237L25.211,283.272c-33.582,33.582-33.582,88.224,0,121.806l88.065,88.065   c16.269,16.269,37.897,25.23,60.9,25.23c0.675,0,1.345-0.034,2.018-0.049v0.049H375.1v-13.828H220.993   c5.024-3.268,9.752-7.069,14.089-11.408l139.705-139.701h0.313v-0.313l118.018-118.014   C509.387,218.84,518.348,197.212,518.348,174.209z M293.023,35.006c13.662-13.655,31.819-21.178,51.13-21.178   c19.311,0,37.467,7.523,51.122,21.179l56.271,56.276l-1.587,1.587c28.189,28.189,28.189,74.064,0,102.253L308.337,336.745   L149.812,178.22L293.023,35.006z M225.305,483.367c-13.662,13.655-31.819,21.178-51.13,21.178s-37.468-7.516-51.123-21.178   l-88.065-88.058c-13.655-13.662-21.178-31.819-21.178-51.13c0-19.311,7.516-37.468,21.178-51.13l105.049-105.051l158.532,158.524   L191.931,453.159l9.777,9.777l109.499-109.5h44.029L225.305,483.367z M369.064,339.608h-44.029l134.701-134.709   c22.495-22.495,29.897-54.434,22.256-83.168l1.348,1.348c13.655,13.655,21.178,31.812,21.178,51.13   c0,19.311-7.516,37.468-21.178,51.123L369.064,339.608z" fill="#FFFFFF"/>
</g>
<g>
</g>
<g>
</g>
<g>
</g>
<g>
</g>
<g>
</g>
<g>
</g>
<g>
</g>
<g>
</g>
<g>
</g>
<g>
</g>
<g>
</g>
<g>
</g>
<g>
</g>
<g>
</g>
<g>
</g>
</svg>
